<svg xmlns="http://www.w3.org/2000/svg" width="1200" height="800" viewBox="0 0 1200 800" role="img" aria-labelledby="title desc">
  <title>Placeholder foto 09</title>
  <desc>Imagen de ejemplo para reemplazar por una fotografía real en la sección 09</desc>
  <defs>
    <linearGradient id="bg" x1="0" y1="0" x2="1" y2="1">
      <stop offset="0%" stop-color="#f8c9c9"/>
      <stop offset="52%" stop-color="#fff8f8"/>
      <stop offset="100%" stop-color="#f3a5a5"/>
    </linearGradient>
    <linearGradient id="line" x1="0" y1="0" x2="1" y2="1">
      <stop offset="0%" stop-color="#c62828"/>
      <stop offset="100%" stop-color="#8e1d1d"/>
    </linearGradient>
  </defs>
  <rect width="1200" height="800" rx="40" fill="url(#bg)"/>
  <circle cx="160" cy="150" r="90" fill="#ffffff" opacity="0.45"/>
  <circle cx="1030" cy="620" r="170" fill="#c62828" opacity="0.12"/>
  <circle cx="870" cy="170" r="70" fill="#f0c27a" opacity="0.26"/>
  <rect x="110" y="110" width="980" height="580" rx="34" fill="#ffffff" opacity="0.88"/>
  <rect x="160" y="160" width="880" height="330" rx="28" fill="#fff4f4" stroke="#eeb4b4" stroke-width="3" stroke-dasharray="12 10"/>
  <g opacity="0.95">
    <circle cx="600" cy="300" r="76" fill="#fff" stroke="url(#line)" stroke-width="12"/>
    <path d="M560 260 C540 240 520 210 520 180 C520 135 556 100 600 100 C644 100 680 135 680 180 C680 210 660 240 640 260" fill="none" stroke="url(#line)" stroke-width="12" stroke-linecap="round"/>
    <path d="M555 340 C555 392 575 454 600 506 C625 454 645 392 645 340" fill="#fff" stroke="url(#line)" stroke-width="12" stroke-linejoin="round"/>
  </g>
  <text x="600" y="585" text-anchor="middle" font-family="Inter, Arial, sans-serif" font-size="54" font-weight="800" fill="#8e1d1d">Foto 09</text>
  <text x="600" y="645" text-anchor="middle" font-family="Inter, Arial, sans-serif" font-size="28" font-weight="600" fill="#7a5858">Reemplaza este archivo por tu foto real</text>
</svg>
